<svg width="508" height="160" viewBox="0 0 508 160" fill="none" xmlns="http://www.w3.org/2000/svg">
<path d="M321 1C321 6 320 42 320 79C320 115 321 152 321 157C321 158 321 158 321 158H304C304 158 303 158 303 157C303 152 304 115 304 79C304 42 303 6 303 1H304H321ZM5 128C5 127 6 126 7 127C13 142 33 155 52 155C74 155 90 137 90 119C90 106 79 96 65 91C57 89 47 85 36 82C18 75 3 65 3 44C3 18 24 0 51 0C68 0 87 10 92 15C92 15 92 15 92 16L87 28C86 29 85 29 84 28C81 17 69 5 51 5C27 5 15 18 15 34C15 50 25 58 40 63C51 66 64 70 74 74C93 81 105 93 105 110C105 142 78 160 52 160C32 160 9 150 0 142C0 141 0 141 0 141L5 128ZM419 1C410 1 392 1 390 1H377V2C377 7 378 42 378 79C378 115 377 152 377 157H387C391 157 399 158 408 158C411 158 413 158 417 158C420 158 425 158 433 158C455 156 472 147 482 138C495 128 508 109 508 79C508 36 479 1 419 1ZM415 152C407 152 400 151 395 151C395 151 394 151 394 79C394 8 395 8 395 8C403 8 408 7 413 7C461 7 489 29 489 80C489 114 464 152 415 152ZM231 81C215 43 199 5 198 2V1H192V2C191 5 176 41 160 79C143 119 126 157 126 157C126 158 126 158 126 158H133L157 101V100H216C219 100 222 102 223 105C236 134 245 155 246 158H264C265 158 265 158 265 157C265 157 248 121 231 81ZM218 94C218 94 218 94 215 94H160L188 28C195 42 206 67 215 87C216 90 217 92 218 94Z" fill="white"/>
</svg>
